<?xml version="1.0" standalone="no"?>
<!DOCTYPE svg PUBLIC "-//W3C//DTD SVG 20010904//EN"
 "http://www.w3.org/TR/2001/REC-SVG-20010904/DTD/svg10.dtd">
<svg version="1.0" xmlns="http://www.w3.org/2000/svg"
 width="256.000000pt" height="396.000000pt" viewBox="0 0 256.000000 396.000000"
 preserveAspectRatio="xMidYMid meet">

<g transform="translate(0.000000,396.000000) scale(0.100000,-0.100000)"
fill="#000000" stroke="none">
<path d="M1154 3316 c-141 -178 -221 -350 -207 -443 14 -91 79 -162 172 -190
104 -30 207 -1 274 77 72 85 71 177 -3 324 -37 72 -115 189 -173 257 l-22 27
-41 -52z m-80 -278 c-8 -66 7 -120 48 -182 35 -54 31 -79 -15 -84 -94 -11
-125 117 -63 256 16 34 30 62 32 62 2 0 1 -24 -2 -52z"/>
<path d="M584 2533 l-30 -4 100 -699 99 -700 452 0 452 0 99 699 100 700 -63
7 c-35 3 -65 5 -67 3 -2 -2 -42 -283 -90 -624 -48 -341 -90 -628 -92 -637 -5
-17 -30 -18 -339 -18 -309 0 -334 1 -339 18 -2 9 -44 297 -92 640 l-88 622
-36 -2 c-19 0 -49 -3 -66 -5z"/>
<path d="M1043 2388 c-51 -56 -145 -66 -219 -23 l-44 26 6 -58 c8 -67 18 -77
92 -94 45 -11 60 -10 110 5 71 22 86 22 142 1 51 -19 121 -15 169 10 28 14 35
14 95 -6 73 -24 131 -21 183 10 25 16 32 28 38 66 3 26 9 55 13 64 5 15 4 15
-14 0 -77 -65 -191 -69 -249 -9 l-28 29 -29 -29 c-59 -59 -160 -59 -219 0 -28
27 -28 27 -46 8z"/>
</g>
</svg>
